<svg version="1.2" xmlns="http://www.w3.org/2000/svg" viewBox="131 -124 486 751" width="1200" height="1854">
	<title>10262399</title>
	<style>
		.s0 { fill: none;stroke: #9db4bf;stroke-miterlimit:10;stroke-width: .7 } 
		.s1 { fill: none;stroke: #9db4bf;stroke-miterlimit:10;stroke-dasharray: 2,2 } 
	</style>
	<g id="BACKGROUND">
	</g>
	<g id="OBJECTS">
		<g id="&lt;Group&gt;">
			<path id="&lt;Path&gt;" class="s0" d="m617.4-106.7h-484.8"/>
			<path id="&lt;Path&gt;" class="s1" d="m617.4-88.4h-484.8"/>
			<path id="&lt;Path&gt;" class="s0" d="m617.4-70.1h-484.8"/>
			<path id="&lt;Path&gt;" class="s1" d="m617.4-51.8h-484.8"/>
			<path id="&lt;Path&gt;" class="s0" d="m617.4-33.5h-484.8"/>
			<path id="&lt;Path&gt;" class="s1" d="m617.4-15.2h-484.8"/>
			<path id="&lt;Path&gt;" class="s0" d="m617.4 3h-484.8"/>
			<path id="&lt;Path&gt;" class="s1" d="m617.4 21.3h-484.8"/>
			<path id="&lt;Path&gt;" class="s0" d="m617.4 39.6h-484.8"/>
			<path id="&lt;Path&gt;" class="s1" d="m617.4 57.9h-484.8"/>
			<path id="&lt;Path&gt;" class="s0" d="m617.4 76.2h-484.8"/>
			<path id="&lt;Path&gt;" class="s1" d="m617.4 94.5h-484.8"/>
			<path id="&lt;Path&gt;" class="s0" d="m617.4 112.8h-484.8"/>
			<path id="&lt;Path&gt;" class="s1" d="m617.4 131.1h-484.8"/>
			<path id="&lt;Path&gt;" class="s0" d="m617.4 149.4h-484.8"/>
			<path id="&lt;Path&gt;" class="s1" d="m617.4 167.7h-484.8"/>
			<path id="&lt;Path&gt;" class="s0" d="m617.4 186h-484.8"/>
			<path id="&lt;Path&gt;" class="s1" d="m617.4 204.3h-484.8"/>
			<path id="&lt;Path&gt;" class="s0" d="m617.4 222.6h-484.8"/>
			<path id="&lt;Path&gt;" class="s1" d="m617.4 240.9h-484.8"/>
			<path id="&lt;Path&gt;" class="s0" d="m617.4 259.1h-484.8"/>
			<path id="&lt;Path&gt;" class="s1" d="m617.4 277.4h-484.8"/>
			<path id="&lt;Path&gt;" class="s0" d="m617.4 295.7h-484.8"/>
			<path id="&lt;Path&gt;" class="s1" d="m617.4 314h-484.8"/>
			<path id="&lt;Path&gt;" class="s0" d="m617.4 332.3h-484.8"/>
			<path id="&lt;Path&gt;" class="s1" d="m617.4 350.6h-484.8"/>
			<path id="&lt;Path&gt;" class="s0" d="m617.4 368.9h-484.8"/>
			<path id="&lt;Path&gt;" class="s1" d="m617.4 387.2h-484.8"/>
			<path id="&lt;Path&gt;" class="s0" d="m617.4 405.5h-484.8"/>
			<path id="&lt;Path&gt;" class="s1" d="m617.4 423.8h-484.8"/>
			<path id="&lt;Path&gt;" class="s0" d="m617.4 442.1h-484.8"/>
			<path id="&lt;Path&gt;" class="s1" d="m617.4 460.4h-484.8"/>
			<path id="&lt;Path&gt;" class="s0" d="m617.4 478.7h-484.8"/>
			<path id="&lt;Path&gt;" class="s1" d="m617.4 497h-484.8"/>
			<path id="&lt;Path&gt;" class="s0" d="m617.4 515.2h-484.8"/>
			<path id="&lt;Path&gt;" class="s1" d="m617.4 533.5h-484.8"/>
			<path id="&lt;Path&gt;" class="s0" d="m617.4 551.8h-484.8"/>
			<path id="&lt;Path&gt;" class="s1" d="m617.4 570.1h-484.8"/>
			<path id="&lt;Path&gt;" class="s0" d="m617.4 588.4h-484.8"/>
			<path id="&lt;Path&gt;" class="s1" d="m617.4 606.7h-484.8"/>
			<path id="&lt;Path&gt;" class="s0" d="m150.6 625v-750"/>
			<path id="&lt;Path&gt;" class="s1" d="m168.5 625v-750"/>
			<path id="&lt;Path&gt;" class="s0" d="m186.5 625v-750"/>
			<path id="&lt;Path&gt;" class="s1" d="m204.4 625v-750"/>
			<path id="&lt;Path&gt;" class="s0" d="m222.4 625v-750"/>
			<path id="&lt;Path&gt;" class="s1" d="m240.3 625v-750"/>
			<path id="&lt;Path&gt;" class="s0" d="m258.3 625v-750"/>
			<path id="&lt;Path&gt;" class="s1" d="m276.2 625v-750"/>
			<path id="&lt;Path&gt;" class="s0" d="m294.2 625v-750"/>
			<path id="&lt;Path&gt;" class="s1" d="m312.2 625v-750"/>
			<path id="&lt;Path&gt;" class="s0" d="m330.1 625v-750"/>
			<path id="&lt;Path&gt;" class="s1" d="m348.1 625v-750"/>
			<path id="&lt;Path&gt;" class="s0" d="m366 625v-750"/>
			<path id="&lt;Path&gt;" class="s1" d="m384 625v-750"/>
			<path id="&lt;Path&gt;" class="s0" d="m401.9 625v-750"/>
			<path id="&lt;Path&gt;" class="s1" d="m419.9 625v-750"/>
			<path id="&lt;Path&gt;" class="s0" d="m437.8 625v-750"/>
			<path id="&lt;Path&gt;" class="s1" d="m455.8 625v-750"/>
			<path id="&lt;Path&gt;" class="s0" d="m473.8 625v-750"/>
			<path id="&lt;Path&gt;" class="s1" d="m491.7 625v-750"/>
			<path id="&lt;Path&gt;" class="s0" d="m509.7 625v-750"/>
			<path id="&lt;Path&gt;" class="s1" d="m527.6 625v-750"/>
			<path id="&lt;Path&gt;" class="s0" d="m545.6 625v-750"/>
			<path id="&lt;Path&gt;" class="s1" d="m563.5 625v-750"/>
			<path id="&lt;Path&gt;" class="s0" d="m581.5 625v-750"/>
			<path id="&lt;Path&gt;" class="s1" d="m599.4 625v-750"/>
			<path id="&lt;Path&gt;" class="s0" d="m617.4 625h-484.8v-750h484.8z"/>
		</g>
	</g>
</svg>